{
	"asset":{
		"version":"2.0",
		"generator":"MAXON CINEMA 4D Studio (RC - R19) 19.024 (#200000219)"
	},
	"scenes":[{
		"nodes":[0,
		1,
		2,
		3,
		4,
		5,
		6]
	}],
	"nodes":[{
		"name":"身体",
		"translation":[-3.1732271639486279e-19,
		0.8273898959159851,
		0.05786457657814026],
		"rotation":[2.1999468096791873e-18,
		-2.220337126107252e-16,
		0.009907679632306099,
		-0.9999509453773499],
		"scale":[1.0,
		1.0,
		1.0],
		"children":[7]
	},
	{
		"name":"右胳膊",
		"translation":[-0.23071777820587159,
		1.009522795677185,
		0.0503515787422657],
		"rotation":[1.4857684490290495e-16,
		1.650112957828881e-16,
		0.6691306233406067,
		0.7431448101997376],
		"scale":[1.0,
		1.0,
		1.0],
		"children":[8]
	},
	{
		"name":"左胳膊",
		"translation":[0.23071777820587159,
		1.009522795677185,
		0.0503515787422657],
		"rotation":[2.2190934435126664e-16,
		-7.749244699717252e-18,
		0.9993908405303955,
		-0.03489949554204941],
		"scale":[1.0,
		1.0,
		1.0],
		"children":[9]
	},
	{
		"name":"右腿",
		"translation":[-0.1903277188539505,
		0.32939258217811587,
		0.06680666655302048],
		"rotation":[4.356528675745282e-18,
		2.2200186946586438e-16,
		0.019620060920715333,
		0.9998075366020203],
		"scale":[1.0,
		1.0,
		1.0],
		"children":[10]
	},
	{
		"name":"左腿",
		"translation":[0.16442330181598664,
		0.3300849199295044,
		0.06680666655302048],
		"rotation":[4.356528675745282e-18,
		2.2200186946586438e-16,
		0.019620060920715333,
		0.9998075366020203],
		"scale":[1.0,
		1.0,
		1.0],
		"children":[11]
	},
	{
		"name":"全身控制器",
		"children":[12]
	},
	{
		"name":"摄像机",
		"scale":[1.0,
		1.0,
		1.0],
		"camera":0,
		"translation":[-0.028106290847063066,
		1.5060211420059205,
		5.243702411651611],
		"rotation":[0.0,
		0.0,
		0.0,
		-1.0]
	},
	{
		"name":"身体",
		"mesh":0
	},
	{
		"name":"右胳膊",
		"mesh":1
	},
	{
		"name":"左胳膊",
		"mesh":2
	},
	{
		"name":"右腿",
		"mesh":3
	},
	{
		"name":"左腿",
		"mesh":4
	},
	{
		"name":"上半身控制器",
		"translation":[4.917894467582149e-17,
		0.5329537391662598,
		0.05179943889379501],
		"rotation":[0.0,
		0.0,
		0.0,
		-1.0],
		"scale":[1.0,
		1.0,
		1.0],
		"children":[13]
	},
	{
		"name":"身体控制",
		"translation":[-5.3000426461587876e-17,
		0.0,
		0.0],
		"rotation":[0.5,
		-0.5,
		0.5,
		0.5],
		"scale":[1.0,
		1.0,
		1.0],
		"children":[14]
	},
	{
		"name":"圆环.1",
		"translation":[1.3805065900142425e-32,
		0.0,
		-0.21156059205532075],
		"rotation":[0.0,
		0.0,
		0.0,
		-1.0],
		"scale":[1.0,
		1.0,
		1.0],
		"children":[15]
	},
	{
		"name":"圆环.2",
		"translation":[1.0519420458778751e-17,
		1.0888349777360418e-7,
		-0.19817815721035005],
		"rotation":[0.0,
		0.0,
		0.0,
		-1.0],
		"scale":[1.0,
		1.0,
		1.0],
		"children":[16]
	},
	{
		"name":"头部++控制器",
		"translation":[0.010610136203467846,
		0.00011895789066329598,
		-0.1339491754770279],
		"rotation":[0.5,
		-0.5,
		0.5,
		-0.5],
		"scale":[1.0,
		1.0,
		1.0],
		"children":[17]
	},
	{
		"name":"头",
		"translation":[-0.00243644742295146,
		0.3949100375175476,
		0.22162798047065736],
		"rotation":[0.0,
		0.0,
		0.0,
		-1.0],
		"scale":[9.813164710998536,
		9.813164710998536,
		9.813164710998536],
		"children":[18,
		19,
		20,
		21,
		22]
	},
	{
		"name":"眼睛",
		"translation":[-0.0003196247562300414,
		0.0006275378400459886,
		0.004634219221770763],
		"rotation":[0.0,
		0.0,
		0.0,
		-1.0],
		"scale":[1.0,
		1.0,
		1.0],
		"children":[23,
		24]
	},
	{
		"name":"胡子",
		"translation":[0.00010653807112248614,
		-0.014236592687666417,
		0.008573726750910283],
		"rotation":[0.0,
		0.0,
		0.0,
		-1.0],
		"scale":[1.0,
		1.0,
		1.0],
		"children":[25]
	},
	{
		"name":"鼻头",
		"mesh":5,
		"translation":[0.00010654812649590895,
		-0.0026716222055256368,
		0.009633390232920647],
		"rotation":[0.0,
		0.0,
		0.0,
		-1.0],
		"scale":[1.0,
		1.0,
		1.0]
	},
	{
		"name":"舌头",
		"mesh":6,
		"translation":[0.000503132410813123,
		-0.028142588213086129,
		-0.0022122992668300869],
		"rotation":[0.0,
		-4.4021256921256779e-33,
		0.0,
		-1.0],
		"scale":[1.6299999952316285,
		1.059999942779541,
		0.699999988079071]
	},
	{
		"name":"嘴",
		"translation":[-0.0006217816844582558,
		0.008451725356280804,
		-0.010607250966131688],
		"rotation":[0.0,
		0.0,
		0.0,
		-1.0],
		"scale":[1.0,
		1.0,
		1.0],
		"children":[26]
	},
	{
		"name":"代发货",
		"translation":[8.027940907595621e-7,
		-0.00041195459198206663,
		0.0032513360492885114],
		"rotation":[0.0,
		0.0,
		0.0,
		-1.0],
		"scale":[1.0,
		1.0,
		1.0],
		"children":[27,
		28]
	},
	{
		"name":"眼白",
		"children":[29,
		30]
	},
	{
		"name":"标准胡子",
		"mesh":7
	},
	{
		"name":"现在的头.2",
		"translation":[8.892956561575537e-17,
		0.007828951813280583,
		-0.010924280621111393],
		"rotation":[0.0,
		0.0,
		0.0,
		-1.0],
		"scale":[1.0,
		1.0,
		1.0],
		"children":[31]
	},
	{
		"name":"眼珠1",
		"mesh":8,
		"translation":[0.05366626754403114,
		0.0005982143920846283,
		0.0000752816631575115],
		"rotation":[0.0,
		0.0,
		0.0,
		-1.0],
		"scale":[1.0,
		1.0,
		1.0]
	},
	{
		"name":"眼珠",
		"mesh":9,
		"translation":[-0.051813412457704547,
		0.0018502362072467805,
		-0.0000752816631575115],
		"rotation":[0.0,
		0.0,
		0.0,
		-1.0],
		"scale":[1.0,
		1.0,
		1.0]
	},
	{
		"name":"正常左眼",
		"mesh":10,
		"translation":[0.05277108773589134,
		0.0000028880485842819327,
		0.00010905668023042381],
		"rotation":[0.0,
		0.0,
		0.0,
		-1.0],
		"scale":[1.0,
		1.0,
		1.0]
	},
	{
		"name":"正常右眼",
		"mesh":11,
		"translation":[-0.05277108773589134,
		-0.0000028880485842819327,
		-0.00010905668023042381],
		"rotation":[0.0,
		0.0,
		0.0,
		-1.0],
		"scale":[1.0,
		1.0,
		1.0]
	},
	{
		"name":"现在的头.2",
		"mesh":12
	}],
	"meshes":[{
		"name":"身体",
		"primitives":[{
			"attributes":{
				"POSITION":1,
				"NORMAL":2
			},
			"indices":0,
			"material":0
		}]
	},
	{
		"name":"右胳膊",
		"primitives":[{
			"attributes":{
				"POSITION":4,
				"NORMAL":5
			},
			"indices":3,
			"material":1
		}]
	},
	{
		"name":"左胳膊",
		"primitives":[{
			"attributes":{
				"POSITION":7,
				"NORMAL":8
			},
			"indices":6,
			"material":2
		}]
	},
	{
		"name":"右腿",
		"primitives":[{
			"attributes":{
				"POSITION":10,
				"NORMAL":11
			},
			"indices":9,
			"material":3
		}]
	},
	{
		"name":"左腿",
		"primitives":[{
			"attributes":{
				"POSITION":13,
				"NORMAL":14
			},
			"indices":12,
			"material":4
		}]
	},
	{
		"name":"鼻头",
		"primitives":[{
			"attributes":{
				"POSITION":16,
				"NORMAL":17,
				"TEXCOORD_0":18
			},
			"indices":15,
			"material":5
		}]
	},
	{
		"name":"舌头",
		"primitives":[{
			"attributes":{
				"POSITION":20,
				"NORMAL":21,
				"TEXCOORD_0":22
			},
			"indices":19,
			"material":6
		}]
	},
	{
		"name":"标准胡子",
		"primitives":[{
			"attributes":{
				"POSITION":24,
				"NORMAL":25,
				"TEXCOORD_0":26
			},
			"indices":23,
			"material":7
		}]
	},
	{
		"name":"眼珠1",
		"primitives":[{
			"attributes":{
				"POSITION":28,
				"NORMAL":29,
				"TEXCOORD_0":30
			},
			"indices":27,
			"material":8
		}]
	},
	{
		"name":"眼珠",
		"primitives":[{
			"attributes":{
				"POSITION":32,
				"NORMAL":33,
				"TEXCOORD_0":34
			},
			"indices":31,
			"material":9
		}]
	},
	{
		"name":"正常左眼",
		"primitives":[{
			"attributes":{
				"POSITION":36,
				"NORMAL":37,
				"TEXCOORD_0":38
			},
			"indices":35,
			"material":10
		}]
	},
	{
		"name":"正常右眼",
		"primitives":[{
			"attributes":{
				"POSITION":40,
				"NORMAL":41,
				"TEXCOORD_0":42
			},
			"indices":39,
			"material":11
		}]
	},
	{
		"name":"现在的头.2",
		"primitives":[{
			"attributes":{
				"POSITION":44,
				"NORMAL":45,
				"TEXCOORD_0":46
			},
			"indices":43,
			"material":12
		}]
	}],
	"cameras":[{
		"type":"orthographic",
		"orthographic":{
			"znear":0.0,
			"zfar":10000000000.0,
			"xmag":2.0075559616088869,
			"ymag":2.0075559616088869
		}
	}],
	"accessors":[{
		"bufferView":0,
		"type":"SCALAR",
		"max":[6027],
		"componentType":5123,
		"count":36096,
		"byteOffset":0,
		"min":[0]
	},
	{
		"bufferView":1,
		"type":"VEC3",
		"max":[0.27566415071487429,
		0.26807060837745669,
		0.21182861924171449],
		"componentType":5126,
		"count":6028,
		"byteOffset":0,
		"min":[-0.27566415071487429,
		-0.3586439788341522,
		-0.21182861924171449]
	},
	{
		"bufferView":1,
		"type":"VEC3",
		"max":[0.9996840357780457,
		0.9999994039535523,
		0.9999633431434631],
		"componentType":5126,
		"count":6028,
		"byteOffset":12,
		"min":[-0.9996749758720398,
		-0.9998031854629517,
		-0.9999707937240601]
	},
	{
		"bufferView":2,
		"type":"SCALAR",
		"max":[2561],
		"componentType":5123,
		"count":15360,
		"byteOffset":0,
		"min":[0]
	},
	{
		"bufferView":3,
		"type":"VEC3",
		"max":[0.05767140910029411,
		0.33346104621887209,
		0.1231641173362732],
		"componentType":5126,
		"count":2562,
		"byteOffset":0,
		"min":[-0.4677467942237854,
		-0.04138690605759621,
		-0.1061316430568695]
	},
	{
		"bufferView":3,
		"type":"VEC3",
		"max":[0.9997979402542114,
		0.9984237551689148,
		0.999360203742981],
		"componentType":5126,
		"count":2562,
		"byteOffset":12,
		"min":[-0.9985672831535339,
		-0.999977707862854,
		-0.999739944934845]
	},
	{
		"bufferView":4,
		"type":"SCALAR",
		"max":[2561],
		"componentType":5123,
		"count":15360,
		"byteOffset":0,
		"min":[0]
	},
	{
		"bufferView":5,
		"type":"VEC3",
		"max":[0.04112868756055832,
		0.4624567925930023,
		0.12380895763635636],
		"componentType":5126,
		"count":2562,
		"byteOffset":0,
		"min":[-0.34180885553359988,
		-0.057168055325746539,
		-0.10558263212442398]
	},
	{
		"bufferView":5,
		"type":"VEC3",
		"max":[0.9986236095428467,
		0.9997456669807434,
		0.9997522830963135],
		"componentType":5126,
		"count":2562,
		"byteOffset":12,
		"min":[-0.9999935626983643,
		-0.9974890947341919,
		-0.9993859529495239]
	},
	{
		"bufferView":6,
		"type":"SCALAR",
		"max":[3073],
		"componentType":5123,
		"count":18432,
		"byteOffset":0,
		"min":[0]
	},
	{
		"bufferView":7,
		"type":"VEC3",
		"max":[0.1383901685476303,
		0.3305644989013672,
		0.15340007841587068],
		"componentType":5126,
		"count":3074,
		"byteOffset":0,
		"min":[-0.1417490690946579,
		-0.3305644989013672,
		-0.15340007841587068]
	},
	{
		"bufferView":7,
		"type":"VEC3",
		"max":[0.9999057650566101,
		0.9999889135360718,
		0.9999964237213135],
		"componentType":5126,
		"count":3074,
		"byteOffset":12,
		"min":[-0.999988317489624,
		-0.9990195631980896,
		-0.9998647570610046]
	},
	{
		"bufferView":8,
		"type":"SCALAR",
		"max":[3073],
		"componentType":5123,
		"count":18432,
		"byteOffset":0,
		"min":[0]
	},
	{
		"bufferView":9,
		"type":"VEC3",
		"max":[0.13640964031219483,
		0.32993483543395998,
		0.15340007841587068],
		"componentType":5126,
		"count":3074,
		"byteOffset":0,
		"min":[-0.13640964031219483,
		-0.32993483543395998,
		-0.15340007841587068]
	},
	{
		"bufferView":9,
		"type":"VEC3",
		"max":[0.9999957084655762,
		0.9993666410446167,
		0.9998645186424255],
		"componentType":5126,
		"count":3074,
		"byteOffset":12,
		"min":[-0.9999994039535523,
		-0.9999982118606567,
		-0.9999964237213135]
	},
	{
		"bufferView":10,
		"type":"SCALAR",
		"max":[3520],
		"componentType":5123,
		"count":19968,
		"byteOffset":0,
		"min":[0]
	},
	{
		"bufferView":11,
		"type":"VEC3",
		"max":[0.008351069875061512,
		0.005503133404999971,
		0.0023431468289345505],
		"componentType":5126,
		"count":3521,
		"byteOffset":0,
		"min":[-0.008351064287126065,
		-0.005240201018750668,
		-0.00197446602396667]
	},
	{
		"bufferView":11,
		"type":"VEC3",
		"max":[0.9995467662811279,
		0.9999788999557495,
		0.9999829530715942],
		"componentType":5126,
		"count":3521,
		"byteOffset":12,
		"min":[-0.9995458126068115,
		-0.9999958276748657,
		-0.9999901056289673]
	},
	{
		"bufferView":11,
		"type":"VEC2",
		"max":[0.875,
		1.0],
		"componentType":5126,
		"count":3521,
		"byteOffset":24,
		"min":[0.125,
		0.0]
	},
	{
		"bufferView":12,
		"type":"SCALAR",
		"max":[322],
		"componentType":5123,
		"count":1584,
		"byteOffset":0,
		"min":[0]
	},
	{
		"bufferView":13,
		"type":"VEC3",
		"max":[0.005409561563283205,
		0.005409561563283205,
		0.005409561563283205],
		"componentType":5126,
		"count":323,
		"byteOffset":0,
		"min":[-0.005409561563283205,
		-0.005409561563283205,
		-0.005409561563283205]
	},
	{
		"bufferView":13,
		"type":"VEC3",
		"max":[1.0,
		1.0,
		1.0],
		"componentType":5126,
		"count":323,
		"byteOffset":12,
		"min":[-1.0,
		-1.0,
		-1.0]
	},
	{
		"bufferView":13,
		"type":"VEC2",
		"max":[1.0,
		1.0],
		"componentType":5126,
		"count":323,
		"byteOffset":24,
		"min":[0.0,
		0.0]
	},
	{
		"bufferView":14,
		"type":"SCALAR",
		"max":[3508],
		"componentType":5123,
		"count":19968,
		"byteOffset":0,
		"min":[0]
	},
	{
		"bufferView":15,
		"type":"VEC3",
		"max":[0.014935405924916268,
		0.010572061873972416,
		0.0016106530092656613],
		"componentType":5126,
		"count":3509,
		"byteOffset":0,
		"min":[-0.014935380779206753,
		-0.007239405065774918,
		-0.0012357382802292705]
	},
	{
		"bufferView":15,
		"type":"VEC3",
		"max":[0.9999969005584717,
		0.9994180798530579,
		0.9999421238899231],
		"componentType":5126,
		"count":3509,
		"byteOffset":12,
		"min":[-0.9999967813491821,
		-0.9996470808982849,
		-0.9999980926513672]
	},
	{
		"bufferView":15,
		"type":"VEC2",
		"max":[1.0,
		1.0],
		"componentType":5126,
		"count":3509,
		"byteOffset":24,
		"min":[0.0,
		0.0]
	},
	{
		"bufferView":16,
		"type":"SCALAR",
		"max":[1648],
		"componentType":5123,
		"count":9216,
		"byteOffset":0,
		"min":[0]
	},
	{
		"bufferView":17,
		"type":"VEC3",
		"max":[0.010124950669705868,
		0.02541874535381794,
		0.0028170424047857525],
		"componentType":5126,
		"count":1649,
		"byteOffset":0,
		"min":[-0.010134016163647175,
		-0.025358447805047036,
		-0.00218680826947093]
	},
	{
		"bufferView":17,
		"type":"VEC3",
		"max":[0.9998283386230469,
		0.9997885227203369,
		0.9999769926071167],
		"componentType":5126,
		"count":1649,
		"byteOffset":12,
		"min":[-0.999839186668396,
		-0.9997882843017578,
		-0.9999779462814331]
	},
	{
		"bufferView":17,
		"type":"VEC2",
		"max":[0.875,
		1.0],
		"componentType":5126,
		"count":1649,
		"byteOffset":24,
		"min":[0.125,
		0.0]
	},
	{
		"bufferView":18,
		"type":"SCALAR",
		"max":[1648],
		"componentType":5123,
		"count":9216,
		"byteOffset":0,
		"min":[0]
	},
	{
		"bufferView":19,
		"type":"VEC3",
		"max":[0.009153401479125023,
		0.024117499589920045,
		0.0028170840814709665],
		"componentType":5126,
		"count":1649,
		"byteOffset":0,
		"min":[-0.01110556535422802,
		-0.026659738272428514,
		-0.002186856232583523]
	},
	{
		"bufferView":19,
		"type":"VEC3",
		"max":[0.999839186668396,
		0.9997892379760742,
		0.9999769926071167],
		"componentType":5126,
		"count":1649,
		"byteOffset":12,
		"min":[-0.9998283386230469,
		-0.9997882843017578,
		-0.999977707862854]
	},
	{
		"bufferView":19,
		"type":"VEC2",
		"max":[0.875,
		1.0],
		"componentType":5126,
		"count":1649,
		"byteOffset":24,
		"min":[0.125,
		0.0]
	},
	{
		"bufferView":20,
		"type":"SCALAR",
		"max":[6368],
		"componentType":5123,
		"count":36864,
		"byteOffset":0,
		"min":[0]
	},
	{
		"bufferView":21,
		"type":"VEC3",
		"max":[0.03016783483326435,
		0.030177151784300805,
		0.005398614332079887],
		"componentType":5126,
		"count":6369,
		"byteOffset":0,
		"min":[-0.030352704226970674,
		-0.030190709978342058,
		-0.004860824439674616]
	},
	{
		"bufferView":21,
		"type":"VEC3",
		"max":[0.9998198747634888,
		1.0,
		0.9999998807907105],
		"componentType":5126,
		"count":6369,
		"byteOffset":12,
		"min":[-0.9998176097869873,
		-0.9998770356178284,
		-0.9999668002128601]
	},
	{
		"bufferView":21,
		"type":"VEC2",
		"max":[0.875,
		1.0],
		"componentType":5126,
		"count":6369,
		"byteOffset":24,
		"min":[0.125,
		0.0]
	},
	{
		"bufferView":22,
		"type":"SCALAR",
		"max":[6368],
		"componentType":5123,
		"count":36864,
		"byteOffset":0,
		"min":[0]
	},
	{
		"bufferView":23,
		"type":"VEC3",
		"max":[0.03035271354019642,
		0.030177852138876916,
		0.005492610391229391],
		"componentType":5126,
		"count":6369,
		"byteOffset":0,
		"min":[-0.030167825520038606,
		-0.030191175639629365,
		-0.004820040427148342]
	},
	{
		"bufferView":23,
		"type":"VEC3",
		"max":[0.9998166561126709,
		1.0,
		0.9999998807907105],
		"componentType":5126,
		"count":6369,
		"byteOffset":12,
		"min":[-0.9998250007629395,
		-0.9998725652694702,
		-0.9999545216560364]
	},
	{
		"bufferView":23,
		"type":"VEC2",
		"max":[0.875,
		1.0],
		"componentType":5126,
		"count":6369,
		"byteOffset":24,
		"min":[0.125,
		0.0]
	},
	{
		"bufferView":24,
		"type":"SCALAR",
		"max":[15460],
		"componentType":5123,
		"count":89088,
		"byteOffset":0,
		"min":[0]
	},
	{
		"bufferView":25,
		"type":"VEC3",
		"max":[0.09717230498790741,
		0.05073314905166626,
		0.030198557302355768],
		"componentType":5126,
		"count":15461,
		"byteOffset":0,
		"min":[-0.09717223048210144,
		-0.056924350559711459,
		-0.032821349799633029]
	},
	{
		"bufferView":25,
		"type":"VEC3",
		"max":[0.9999845027923584,
		0.9999997615814209,
		0.9999978542327881],
		"componentType":5126,
		"count":15461,
		"byteOffset":12,
		"min":[-0.9999845027923584,
		-0.9999029040336609,
		-0.999984860420227]
	},
	{
		"bufferView":25,
		"type":"VEC2",
		"max":[0.875,
		1.0],
		"componentType":5126,
		"count":15461,
		"byteOffset":24,
		"min":[0.125,
		0.0]
	}],
	"bufferViews":[{
		"buffer":0,
		"byteOffset":0,
		"byteLength":72192,
		"target":34963
	},
	{
		"buffer":0,
		"byteOffset":72192,
		"byteLength":144672,
		"target":34962,
		"byteStride":24
	},
	{
		"buffer":1,
		"byteOffset":0,
		"byteLength":30720,
		"target":34963
	},
	{
		"buffer":1,
		"byteOffset":30720,
		"byteLength":61488,
		"target":34962,
		"byteStride":24
	},
	{
		"buffer":2,
		"byteOffset":0,
		"byteLength":30720,
		"target":34963
	},
	{
		"buffer":2,
		"byteOffset":30720,
		"byteLength":61488,
		"target":34962,
		"byteStride":24
	},
	{
		"buffer":3,
		"byteOffset":0,
		"byteLength":36864,
		"target":34963
	},
	{
		"buffer":3,
		"byteOffset":36864,
		"byteLength":73776,
		"target":34962,
		"byteStride":24
	},
	{
		"buffer":4,
		"byteOffset":0,
		"byteLength":36864,
		"target":34963
	},
	{
		"buffer":4,
		"byteOffset":36864,
		"byteLength":73776,
		"target":34962,
		"byteStride":24
	},
	{
		"buffer":5,
		"byteOffset":0,
		"byteLength":39936,
		"target":34963
	},
	{
		"buffer":5,
		"byteOffset":39936,
		"byteLength":112672,
		"target":34962,
		"byteStride":32
	},
	{
		"buffer":6,
		"byteOffset":0,
		"byteLength":3168,
		"target":34963
	},
	{
		"buffer":6,
		"byteOffset":3168,
		"byteLength":10336,
		"target":34962,
		"byteStride":32
	},
	{
		"buffer":7,
		"byteOffset":0,
		"byteLength":39936,
		"target":34963
	},
	{
		"buffer":7,
		"byteOffset":39936,
		"byteLength":112288,
		"target":34962,
		"byteStride":32
	},
	{
		"buffer":8,
		"byteOffset":0,
		"byteLength":18432,
		"target":34963
	},
	{
		"buffer":8,
		"byteOffset":18432,
		"byteLength":52768,
		"target":34962,
		"byteStride":32
	},
	{
		"buffer":9,
		"byteOffset":0,
		"byteLength":18432,
		"target":34963
	},
	{
		"buffer":9,
		"byteOffset":18432,
		"byteLength":52768,
		"target":34962,
		"byteStride":32
	},
	{
		"buffer":10,
		"byteOffset":0,
		"byteLength":73728,
		"target":34963
	},
	{
		"buffer":10,
		"byteOffset":73728,
		"byteLength":203808,
		"target":34962,
		"byteStride":32
	},
	{
		"buffer":11,
		"byteOffset":0,
		"byteLength":73728,
		"target":34963
	},
	{
		"buffer":11,
		"byteOffset":73728,
		"byteLength":203808,
		"target":34962,
		"byteStride":32
	},
	{
		"buffer":12,
		"byteOffset":0,
		"byteLength":178176,
		"target":34963
	},
	{
		"buffer":12,
		"byteOffset":178176,
		"byteLength":494752,
		"target":34962,
		"byteStride":32
	}],
	"buffers":[{
		"uri":"data:application/octet-stream;base64,",
		"byteLength":216864
	},
	{
		"uri":"data:application/octet-stream;base64,",
		"byteLength":92208
	},
	{
		"uri":"data:application/octet-stream;base64,",
		"byteLength":92208
	},
	{
		"uri":"data:application/octet-stream;base64,",
		"byteLength":110640
	},
	{
		"uri":"data:application/octet-stream;base64,",
		"byteLength":110640
	},
	{
		"uri":"data:application/octet-stream;base64,",
		"byteLength":152608
	},
	{
		"uri":"data:application/octet-stream;base64,",
		"byteLength":13504
	},
	{
		"uri":"data:application/octet-stream;base64,",
		"byteLength":152224
	},
	{
		"uri":"data:application/octet-stream;base64,",
		"byteLength":71200
	},
	{
		"uri":"data:application/octet-stream;base64,",
		"byteLength":71200
	},
	{
		"uri":"data:application/octet-stream;base64,",
		"byteLength":277536
	},
	{
		"uri":"data:application/octet-stream;base64,",
		"byteLength":277536
	},
	{
		"uri":"data:application/octet-stream;base64,",
		"byteLength":672928
	}],
	"materials":[{
		"pbrMetallicRoughness":{
			"baseColorFactor":[1.0,
			1.0,
			1.0,
			1.0],
			"metallicFactor":1.0,
			"roughnessFactor":1.0
		},
		"emissiveFactor":[0.0,
		0.0,
		0.0],
		"alphaMode":"OPAQUE",
		"doubleSided":false,
		"name":""
	},
	{
		"pbrMetallicRoughness":{
			"baseColorFactor":[1.0,
			1.0,
			1.0,
			1.0],
			"metallicFactor":1.0,
			"roughnessFactor":1.0
		},
		"emissiveFactor":[0.0,
		0.0,
		0.0],
		"alphaMode":"OPAQUE",
		"doubleSided":false,
		"name":""
	},
	{
		"pbrMetallicRoughness":{
			"baseColorFactor":[1.0,
			1.0,
			1.0,
			1.0],
			"metallicFactor":1.0,
			"roughnessFactor":1.0
		},
		"emissiveFactor":[0.0,
		0.0,
		0.0],
		"alphaMode":"OPAQUE",
		"doubleSided":false,
		"name":""
	},
	{
		"pbrMetallicRoughness":{
			"baseColorFactor":[1.0,
			1.0,
			1.0,
			1.0],
			"metallicFactor":1.0,
			"roughnessFactor":1.0
		},
		"emissiveFactor":[0.0,
		0.0,
		0.0],
		"alphaMode":"OPAQUE",
		"doubleSided":false,
		"name":""
	},
	{
		"pbrMetallicRoughness":{
			"baseColorFactor":[1.0,
			1.0,
			1.0,
			1.0],
			"metallicFactor":1.0,
			"roughnessFactor":1.0
		},
		"emissiveFactor":[0.0,
		0.0,
		0.0],
		"alphaMode":"OPAQUE",
		"doubleSided":false,
		"name":""
	},
	{
		"pbrMetallicRoughness":{
			"baseColorFactor":[1.0,
			1.0,
			1.0,
			1.0],
			"metallicFactor":1.0,
			"roughnessFactor":1.0
		},
		"emissiveFactor":[0.0,
		0.0,
		0.0],
		"alphaMode":"OPAQUE",
		"doubleSided":false,
		"name":""
	},
	{
		"pbrMetallicRoughness":{
			"baseColorFactor":[1.0,
			1.0,
			1.0,
			1.0],
			"metallicFactor":1.0,
			"roughnessFactor":1.0
		},
		"emissiveFactor":[0.0,
		0.0,
		0.0],
		"alphaMode":"OPAQUE",
		"doubleSided":false,
		"name":""
	},
	{
		"pbrMetallicRoughness":{
			"baseColorFactor":[1.0,
			1.0,
			1.0,
			1.0],
			"metallicFactor":1.0,
			"roughnessFactor":1.0
		},
		"emissiveFactor":[0.0,
		0.0,
		0.0],
		"alphaMode":"OPAQUE",
		"doubleSided":false,
		"name":""
	},
	{
		"pbrMetallicRoughness":{
			"baseColorFactor":[1.0,
			1.0,
			1.0,
			1.0],
			"metallicFactor":1.0,
			"roughnessFactor":1.0
		},
		"emissiveFactor":[0.0,
		0.0,
		0.0],
		"alphaMode":"OPAQUE",
		"doubleSided":false,
		"name":""
	},
	{
		"pbrMetallicRoughness":{
			"baseColorFactor":[1.0,
			1.0,
			1.0,
			1.0],
			"metallicFactor":1.0,
			"roughnessFactor":1.0
		},
		"emissiveFactor":[0.0,
		0.0,
		0.0],
		"alphaMode":"OPAQUE",
		"doubleSided":false,
		"name":""
	},
	{
		"pbrMetallicRoughness":{
			"baseColorFactor":[1.0,
			1.0,
			1.0,
			1.0],
			"metallicFactor":1.0,
			"roughnessFactor":1.0
		},
		"emissiveFactor":[0.0,
		0.0,
		0.0],
		"alphaMode":"OPAQUE",
		"doubleSided":false,
		"name":""
	},
	{
		"pbrMetallicRoughness":{
			"baseColorFactor":[1.0,
			1.0,
			1.0,
			1.0],
			"metallicFactor":1.0,
			"roughnessFactor":1.0
		},
		"emissiveFactor":[0.0,
		0.0,
		0.0],
		"alphaMode":"OPAQUE",
		"doubleSided":false,
		"name":""
	},
	{
		"pbrMetallicRoughness":{
			"baseColorFactor":[1.0,
			1.0,
			1.0,
			1.0],
			"metallicFactor":1.0,
			"roughnessFactor":1.0
		},
		"emissiveFactor":[0.0,
		0.0,
		0.0],
		"alphaMode":"OPAQUE",
		"doubleSided":false,
		"name":""
	}]
}